<?xml version="1.0" encoding="UTF-8"?>
<svg width="24px" height="24px" viewBox="0 0 24 24" version="1.1" xmlns="http://www.w3.org/2000/svg" xmlns:xlink="http://www.w3.org/1999/xlink">
    <!-- Generator: Sketch 51.3 (57544) - http://www.bohemiancoding.com/sketch -->
    <title>Group</title>
    <desc>Created with Sketch.</desc>
    <defs></defs>
    <g id="Symbols" stroke="none" stroke-width="1" fill="none" fill-rule="evenodd">
        <g id="Bars-/-Tool-bars-/-Home" transform="translate(-129.000000, -14.000000)" fill="#9B9B9B" fill-rule="nonzero">
            <g id="Tool-Bar-Copy">
                <g id="Group" transform="translate(129.000000, 14.000000)">
                    <path d="M12,0 C5.4,0 0,5.4 0,12 C0,18.6 5.4,24 12,24 C18.6,24 24,18.6 24,12 C23.95,5.35 18.6,0 12,0 Z M12,22.95 C5.95,22.95 1.05,18.05 1.05,12 C1.05,5.95 5.95,1.05 12,1.05 C18.05,1.05 22.95,5.95 22.95,12 C22.95,18 18.05,22.95 12,22.95 Z" id="Shape"></path>
                    <path d="M21.9702622,6.03164966 C21.6523163,6.03164966 21.4403523,6.28164966 21.4403523,6.58164966 C21.4403523,7.03164966 20.9634333,7.53164966 20.0095953,7.98164966 C18.5788384,8.73164966 18.7908024,9.33164966 19.3207124,10.7816497 C19.7446404,11.8816497 17.4660275,15.4316497 16.4591985,16.1816497 C16.3532165,15.9316497 16.1942435,15.2816497 16.1942435,14.7316497 C16.1942435,12.7316497 16.1942435,9.73164966 13.3857207,8.73164966 C12.5908557,8.43164966 11.5310358,8.08164966 10.8951438,7.93164966 C10.8421528,7.93164966 10.7361708,7.88164966 10.7361708,7.68164966 C10.6831798,7.28164966 10.9481348,6.73164966 11.3720628,6.53164966 C11.6370178,6.43164966 11.7959908,6.43164966 11.9549638,6.48164966 C12.1139367,6.48164966 12.4318827,6.53164966 12.6968377,6.33164966 C12.9617927,6.08164966 12.9617927,5.68164966 12.9088017,4.83164966 C12.8558107,4.18164966 12.5908557,3.68164966 12.2199187,3.38164966 C11.5840268,2.88164966 10.7891618,2.98164966 10.1532699,3.08164966 C9.99429686,3.08164966 9.83532387,3.13164966 9.72934187,3.13164966 C8.51054894,3.13164966 8.35157594,3.98164966 7.92764797,5.83164966 L7.82166597,6.18164966 L7.82166597,6.23164966 C7.76867497,6.18164966 7.76867497,6.13164966 7.71568398,6.13164966 C7.66269298,5.93164966 7.50371999,4.88164966 7.45072899,4.08164966 C7.45072899,3.88164966 7.291756,3.68164966 7.02680101,3.63164966 C6.81483702,3.58164966 6.54988204,3.68164966 6.44390004,3.88164966 L5.59604409,5.28164966 C5.54305309,5.33164966 5.54305309,5.33164966 5.54305309,5.38164966 C5.54305309,5.38164966 5.3840801,5.73164966 4.27126916,6.08164966 C4.11229616,6.13164966 4.05930517,6.13164966 4.05930517,6.13164966 C3.95332317,5.88164966 4.21827816,4.78164966 4.64220614,3.88164966 C4.74818813,3.63164966 4.64220614,3.33164966 4.37725115,3.23164966 C4.11229616,3.13164966 3.79435018,3.23164966 3.68836819,3.48164966 C3.3174312,4.23164966 2.57555724,6.08164966 3.3174312,6.83164966 C3.52939519,7.03164966 3.95332317,7.28164966 4.69519713,7.03164966 C6.01997206,6.58164966 6.44390004,6.03164966 6.54988204,5.78164966 C6.60287303,6.23164966 6.70885503,6.48164966 6.76184603,6.63164966 C6.86782802,6.78164966 7.344747,7.53164966 8.03362996,7.43164966 C8.45755794,7.38164966 8.72251293,7.03164966 8.88148592,6.43164966 L8.98746791,6.08164966 C9.35840489,4.33164966 9.46438689,4.18164966 9.72934187,4.18164966 C9.88831486,4.18164966 10.1002789,4.18164966 10.3122428,4.13164966 C10.7891618,4.08164966 11.2660808,4.03164966 11.5310358,4.23164966 C11.6900088,4.33164966 11.7959908,4.58164966 11.8489818,4.98164966 C11.8489818,5.23164966 11.9019728,5.43164966 11.9019728,5.53164966 C11.6370178,5.53164966 11.3190718,5.53164966 10.9481348,5.73164966 C9.99429686,6.13164966 9.62335988,7.18164966 9.67635088,7.93164966 C9.72934187,8.53164966 10.1532699,8.98164966 10.6831798,9.08164966 C11.1071078,9.18164966 11.9549638,9.43164966 13.0147837,9.83164966 C14.9754506,10.5316497 15.1344236,12.5316497 15.1344236,14.8816497 C15.1344236,15.4816497 15.2404056,16.9316497 15.9822795,17.3316497 C16.0882615,17.3816497 16.1942435,17.4316497 16.4062075,17.4316497 C16.5651805,17.4316497 16.7771445,17.3816497 16.9891085,17.2316497 C17.9959374,16.6316497 21.0164243,12.4316497 20.3275413,10.5816497 C19.8506223,9.33164966 19.8506223,9.33164966 20.4865143,9.03164966 C21.8642802,8.33164966 22.5531632,7.53164966 22.5001722,6.68164966 C22.5531632,6.23164966 22.2882082,5.98164966 21.9702622,6.03164966 Z" id="Shape"></path>
                    <path d="M5.2,14.7020259 C4.85,14.5520259 4.4,14.4020259 4.25,14.2520259 C3.9,13.9020259 3.6,13.7020259 3.35,13.5520259 C3.15,13.4520259 3,13.3520259 2.75,13.1520259 C2.55,13.0020259 2.25,12.9520259 2.05,13.0520259 C1.85,13.1520259 1.25,13.4020259 1,16.2020259 C1,16.5020259 1.2,16.7520259 1.45,16.7520259 C1.7,16.7520259 2,16.5520259 2,16.3020259 C2.05,15.4520259 2.25,14.6020259 2.4,14.1520259 C2.55,14.2520259 2.7,14.3520259 2.85,14.4520259 C3.1,14.6020259 3.3,14.7020259 3.55,15.0020259 C3.85,15.3020259 4.35,15.4520259 4.85,15.6520259 C5.05,15.7520259 5.4,15.8520259 5.6,15.9520259 L5.5,16.0520259 C4.75,16.7020259 4.35,17.1020259 3.4,19.9520259 C3.3,20.2020259 3.45,20.5020259 3.7,20.6020259 C3.75,20.6020259 3.8,20.6520259 3.85,20.6520259 C4.05,20.6520259 4.25,20.5020259 4.35,20.3020259 C5.3,17.6020259 5.6,17.3020259 6.15,16.8520259 C6.25,16.8020259 6.35,16.7020259 6.45,16.6020259 C6.8,16.3020259 6.8,16.0020259 6.75,15.8020259 C6.6,15.2520259 5.95,14.9520259 5.2,14.7020259 Z" id="Shape"></path>
                </g>
            </g>
        </g>
    </g>
</svg>